<svg width="25" height="24" viewBox="0 0 25 24" fill="none" xmlns="http://www.w3.org/2000/svg">
<g clip-path="url(#clip0_1_522)">
<path fill-rule="evenodd" clip-rule="evenodd" d="M20.8306 7.71938L15.5806 2.46937C15.4398 2.32876 15.249 2.24984 15.05 2.25H6.04999C5.22156 2.25 4.54999 2.92157 4.54999 3.75V20.25C4.54999 21.0784 5.22156 21.75 6.04999 21.75H19.55C20.3784 21.75 21.05 21.0784 21.05 20.25V8.25C21.0501 8.05103 20.9712 7.86015 20.8306 7.71938ZM15.8 4.81031L18.4897 7.5H15.8V4.81031ZM19.55 20.25H6.04999V3.75H14.3V8.25C14.3 8.66421 14.6358 9 15.05 9H19.55V20.25Z" fill="#9E9EBA"/>
</g>
<defs>
<clipPath id="clip0_1_522">
<rect width="24" height="24" fill="white" transform="translate(0.799988)"/>
</clipPath>
</defs>
</svg>
